<?xml version="1.0" encoding="UTF-8" standalone="no"?>
<svg width="392px" height="175px" viewBox="0 0 392 175" version="1.1" xmlns="http://www.w3.org/2000/svg" xmlns:xlink="http://www.w3.org/1999/xlink">
    <!-- Generator: Sketch 3.8.2 (29753) - http://www.bohemiancoding.com/sketch -->
    <title>Slice 1</title>
    <desc>Created with Sketch.</desc>
    <defs></defs>
    <g id="Page-1" stroke="none" stroke-width="1" fill="none" fill-rule="evenodd">
        <g id="logoUCL" fill="#FFFFFF">
            <g id="Page-1">
                <g id="logoUCL">
                    <path d="M281.71,113.36 L281.71,113.36 C292.47,113.36 301.65,105.73 301.65,93.06 C301.65,82.36 294.27,72.64 282.01,72.64 C270.95,72.64 262.49,80.92 262.49,92.33 C262.49,103.33 269.75,113.33 281.71,113.33 L281.71,113.33 L281.71,113.36 L281.71,113.36 Z M281.05,78.36 L281.05,78.36 C290.05,78.36 292.76,88.57 292.76,95.53 C292.76,102.09 289.21,107.53 283.08,107.53 C274.49,107.53 271.36,97.26 271.36,90.23 C271.36,85.43 273.59,78.34 281.04,78.34 L281.04,78.34 L281.05,78.36 L281.05,78.36 Z M208.48,107.61 L208.48,107.61 L208.48,79.13 L212.21,78.74 C217.49,78.74 220.85,80.66 220.85,86.07 C220.85,91.07 218.4,94.59 212.09,94.59 C211.3,94.59 210.53,94.41 209.98,94.41 C209.43,94.41 209.08,94.41 209.08,94.95 C209.08,96.22 213.41,97.72 216.36,97.72 C224.1,97.72 229.75,93.16 229.76,85.72 C229.76,78.72 225.76,73.46 214.61,73.46 L196.83,73.46 L196.83,75.07 C198.83,75.13 199.59,75.92 199.59,77.6 L199.59,107.07 C199.59,109.89 199.17,110.91 196.83,111.34 L196.83,112.84 C199.47,112.67 201.83,112.48 204.04,112.48 C206.25,112.48 208.61,112.67 212.4,112.84 L212.4,111.34 C208.91,110.68 208.49,109.89 208.49,107.73 L208.49,107.73 L208.48,107.61 L208.48,107.61 Z M241.35,77.21 L241.35,77.21 L241.35,108.69 C241.35,110.36 240.63,111.15 238.59,111.21 L238.59,112.71 C241.23,112.54 243.59,112.35 245.8,112.35 C248.01,112.35 250.37,112.54 253.01,112.71 L253.01,111.21 C251.01,111.15 250.24,110.36 250.24,108.69 L250.24,77.28 C250.24,75.59 250.97,74.82 253.01,74.76 L253.01,73.19 C250.37,73.37 248.01,73.55 245.8,73.55 C243.59,73.55 241.24,73.37 238.59,73.19 L238.59,74.76 C240.59,74.83 241.35,75.59 241.35,77.28 L241.35,77.28 L241.35,77.21 L241.35,77.21 Z M313.69,77.21 L313.69,77.21 L313.69,108.68 C313.69,110.36 312.96,111.15 310.92,111.2 L310.92,112.7 C312.84,112.52 314.83,112.34 316.81,112.34 C318.79,112.34 320.59,112.52 322.58,112.7 L322.58,111.2 C320.95,111.2 318.98,110.97 318.98,107.84 L318.98,81.76 L319.1,81.76 L339.05,112.76 L345.42,112.76 L345.42,77.26 C345.42,75.57 346.14,74.79 348.18,74.73 L348.18,73.15 C346.26,73.34 344.28,73.51 342.3,73.51 C340.32,73.51 338.52,73.33 336.53,73.15 L336.53,74.73 C338.15,74.73 340.13,74.97 340.13,78.09 L340.13,100.07 L340.01,100.07 L323.43,73.2 C321.686036,73.492615 319.917542,73.613194 318.15,73.56 C315.92,73.56 313.58,73.38 310.94,73.2 L310.94,74.78 C312.94,74.83 313.71,75.62 313.71,77.31 L313.71,77.31 L313.69,77.21 L313.69,77.21 Z M360.46,99.08 L358.94,99.08 C359.24,102.67 359.43,106.94 359.43,111.82 C363.756296,113.315564 368.302499,114.076081 372.88,114.07 C382.97,114.07 391.19,109.73 391.19,101.57 C391.19,93.41 385.38,91.25 379.13,89.46 L372.63,87.6 C370.09,86.85 367.12,85.87 367.12,82.46 C367.12,78.2 372.31,77.21 375.41,77.21 C380.97,77.21 385.61,79.87 386.9,85.57 L388.45,85.57 C388.2,82.35 387.96,78.57 387.96,74.12 C384.268339,72.804039 380.379191,72.127665 376.46,72.12 C367.24,72.12 357.96,75.03 357.96,84.6 C357.96,91.91 364.27,94.6 370.57,96.42 L374.96,97.73 C377.81,98.6 381.64,99.58 381.64,103.29 C381.64,107.93 376.38,108.98 372.74,108.98 C366.12,108.98 361.69,105.82 360.46,99.08 L360.46,99.08 L360.46,99.08 L360.46,99.08 Z M48.1,77.28 L48.1,77.28 L48.1,108.76 C48.1,110.43 47.38,111.22 45.33,111.27 L45.33,112.81 C47.98,112.63 50.33,112.46 52.54,112.46 C54.75,112.46 57.1,112.63 59.75,112.81 L59.75,111.27 C57.75,111.22 56.99,110.43 56.99,108.76 L56.99,94.94 L71.53,94.94 L71.53,108.77 C71.53,110.44 70.81,111.23 68.76,111.29 L68.76,112.82 C71.41,112.64 73.76,112.47 75.97,112.47 C78.18,112.47 80.53,112.64 83.18,112.82 L83.18,111.29 C81.18,111.23 80.42,110.44 80.42,108.77 L80.42,77.28 C80.42,75.59 81.14,74.81 83.19,74.76 L83.19,73.19 C80.54,73.37 78.19,73.55 75.98,73.55 C73.77,73.55 71.41,73.37 68.77,73.19 L68.77,74.76 C70.77,74.81 71.54,75.59 71.54,77.28 L71.54,89.17 L56.99,89.17 L56.99,77.28 C56.99,75.59 57.71,74.81 59.75,74.76 L59.75,73.19 C57.11,73.37 54.75,73.55 52.54,73.54 C50.33,73.53 47.98,73.37 45.33,73.19 L45.33,74.76 C47.33,74.81 48.1,75.59 48.1,77.28 L48.1,77.28 L48.1,77.28 L48.1,77.28 Z M105.42,95.59 L113.89,95.59 C112.438748,91.064256 111.273121,86.451847 110.4,81.78 L110.28,81.78 C108.9,86.59 106.97,91.34 105.41,95.59 L105.41,95.59 L105.42,95.59 L105.42,95.59 Z M90.88,112.78 L90.88,112.78 L90.88,111.28 C92.62,111.04 93.4,110.07 94.01,108.51 L105.79,78.65 C106.1628,77.915764 106.425611,77.1307 106.57,76.32 C106.57,75.71 105.91,74.75 104.29,74.75 L104.29,73.18 C106.21,73.36 108.08,73.54 109.94,73.54 C111.8,73.54 113.73,73.36 115.59,73.18 L126.65,107.38 C127.55,110.03 128.45,110.81 130.25,111.29 L130.25,112.79 C127.73,112.62 125.15,112.43 122.62,112.43 C120.09,112.43 117.45,112.62 114.87,112.79 L114.87,111.29 C117.09,110.86 117.87,110.39 117.87,109 C117.819277,107.975853 117.617082,106.964875 117.27,106 L115.35,100.18 L103.65,100.18 L101.01,107.27 C100.728135,107.936944 100.562412,108.647183 100.52,109.37 C100.52,110.45 101.36,111.17 103.35,111.3 L103.35,112.8 C101.35,112.63 99.2,112.44 97.16,112.44 C95.12,112.44 93.01,112.63 90.91,112.8 L90.91,112.8 L90.88,112.78 L90.88,112.78 Z M142.36,82.92 L142.36,82.92 L141.03,108.07 C140.91,110.59 139.95,111.13 137.61,111.32 L137.61,112.82 C139.47,112.65 141.7,112.46 143.92,112.46 C146.14,112.46 148.43,112.65 150.83,112.82 L150.83,111.32 C147.22,110.89 146.93,110.24 146.93,107.23 C146.93,105.61 147.05,103.99 147.11,100.87 L147.59,83.26 L147.71,83.26 L159.18,113.07 L164.18,113.07 L174.18,83.54 L174.3,83.54 L175.68,101.45 C175.86,103.45 176.04,106.14 176.04,107.58 C176.04,110.34 175.25,110.88 172.31,111.24 L172.31,112.74 C174.78,112.57 177.36,112.38 180,112.38 C182.64,112.38 185.23,112.57 187.82,112.74 L187.82,111.24 C186.62,111.05 184.87,110.81 184.75,109.24 L182.83,83.58 C182.65,81.58 182.41,78.84 182.41,77.16 C182.41,75.48 182.71,74.88 184.81,74.7 L184.81,73.13 C182.81,73.31 180.66,73.49 178.56,73.49 C176.46,73.49 174.42,73.31 172.31,73.13 L162.96,101.07 L152.45,73.19 C150.28,73.37 148.12,73.55 145.96,73.55 C143.915268,73.532282 141.872708,73.412132 139.84,73.19 L139.84,74.76 C142.12,75.06 142.54,75.3 142.54,77.16 C142.54,79.56 142.42,81.24 142.36,82.93 L142.36,82.93 L142.36,82.92 L142.36,82.92 Z M36.28,110.59 L36.28,110.59 L37.04,103.13 C33.46,106.13 28.12,108.13 24.4,108.13 C15.64,108.13 9.4,99.56 9.4,91.99 C9.4,81.99 15.24,75.99 22.8,75.99 C28.37,75.99 32.24,78.93 33.3,84.5 L35.03,84.5 C34.7,80.14 34.45,75.75 34.45,71.19 C30.966505,70.051038 27.3137767,69.516657 23.65,69.61 C8.13,69.61 0.04,80.85 0.04,92.51 C0.04,103.89 8.13,115.01 22.46,115.01 C26.31,115.01 32.21,113.74 36.32,110.6 L36.32,110.6 L36.28,110.59 L36.28,110.59 Z M101.28,134.52 L101.28,134.52 L101.28,158.7 C101.28,160 100.72,160.6 99.15,160.7 L99.15,161.97 L122.25,161.97 C122.367006,158.944184 122.738315,155.933572 123.36,152.97 L121.86,152.97 C121.07,156.5 119.86,157.89 116.76,157.89 L108.18,157.89 L108.18,135.07 C108.18,133.78 108.51,132.61 110.87,132.53 L110.87,131.25 C109.53,131.39 106.7,131.53 104.75,131.53 C103.03,131.53 101.22,131.39 99.18,131.25 L99.18,132.53 C100.76,132.53 101.31,133.17 101.31,134.53 L101.31,134.53 L101.28,134.52 L101.28,134.52 Z M130.8,134.67 L130.8,134.67 L130.8,158.67 C130.8,159.97 130.24,160.57 128.67,160.67 L128.67,161.94 L153.17,161.94 C153.17,159.38 153.31,156.94 153.73,153.13 L152.18,153.13 C151.39,157.02 150.6,157.86 148.1,157.86 L137.71,157.86 L137.71,148.22 L143.87,148.22 C145.96,148.22 146.29,148.92 146.56,150.59 L147.83,150.59 C147.69,149.48 147.56,147.43 147.56,146.18 C147.56,144.93 147.7,142.93 147.83,141.77 L146.56,141.77 C146.29,143.44 145.96,144.13 143.87,144.13 L137.71,144.13 L137.71,135.13 L147.65,135.13 C150.16,135.13 150.8,136.01 151.27,138.56 L152.54,138.56 C152.31,136.05 152.22,133.98 152.17,131.43 L128.71,131.43 L128.71,132.7 C130.29,132.7 130.84,133.35 130.84,134.65 L130.84,134.65 L130.8,134.67 L130.8,134.67 Z M159.28,160.67 L159.28,160.67 L159.28,161.94 C160.9,161.8 162.48,161.66 164.1,161.66 C165.72,161.66 167.3,161.8 168.88,161.94 L168.88,160.67 C167.34,160.58 166.7,160.02 166.7,159.19 C166.733211,158.63653 166.858251,158.092439 167.07,157.58 L169.07,152.12 L178.07,152.12 L179.55,156.6 C179.824847,157.344617 179.983372,158.127123 180.02,158.92 C180.02,159.98 179.42,160.35 177.7,160.67 L177.7,161.94 C179.7,161.8 181.7,161.66 183.7,161.66 C185.7,161.66 187.64,161.8 189.59,161.94 L189.59,160.67 C188.2,160.31 187.51,159.67 186.8,157.67 L178.27,131.29 C176.83,131.43 175.35,131.57 173.91,131.57 C172.47,131.57 171.04,131.43 169.55,131.29 L169.55,132.54 C170.367707,132.399397 171.148467,132.936169 171.31,133.75 C171.201361,134.379873 170.999124,134.989956 170.71,135.56 L161.61,158.56 C161.329006,159.70109 160.367605,160.546803 159.2,160.68 L159.2,160.68 L159.28,160.67 L159.28,160.67 Z M177.05,148.6 L170.55,148.6 C171.76,145.32 173.24,141.66 174.31,137.96 L174.4,137.96 C175.07442,141.55918 175.972833,145.112755 177.09,148.6 L177.09,148.6 L177.05,148.6 L177.05,148.6 Z M214.53,151.07 L214.53,151.07 L214.53,154.4 C214.53,156.53 212.72,158.07 209.43,158.07 C204.05,158.07 200.8,151.57 200.8,145.82 C200.8,139.82 203.96,134.9 210.41,134.9 C214.26,134.9 218.17,136.9 218.78,141.07 L220.12,141.07 C219.93,137.88 219.83,135.26 219.83,132.98 C217.028873,131.452528 213.86851,130.706475 210.68,130.82 C200.68,130.82 193.93,136.91 193.93,146.98 C193.93,155.33 199.5,162.52 208.22,162.52 C211.642785,162.553423 214.937015,161.217729 217.37,158.81 L218.44,161.91 L221.13,161.91 L221.13,151.53 C221.13,149.44 221.97,149.03 223.59,148.97 L223.59,147.52 C221.51,147.66 219.47,147.81 217.37,147.81 C215.27,147.81 213.52,147.66 211.62,147.52 L211.62,149.07 C213.7,149.07 214.54,149.21 214.54,151.07 L214.54,151.07 L214.53,151.07 L214.53,151.07 Z M232.9,134.52 L232.9,134.52 L232.9,151.85 C232.9,159.79 237.36,162.53 245.7,162.53 C254.04,162.53 258.51,159.79 258.51,151.21 L258.51,134.52 C258.51,133.21 259.06,132.61 260.64,132.52 L260.64,131.24 C259.15,131.38 257.25,131.52 255.3,131.52 C252.88,131.52 250.98,131.38 249.13,131.24 L249.13,132.52 C251.13,132.61 251.64,132.98 251.64,134.78 L251.64,152.17 C251.64,157.32 249.46,158.44 245.7,158.44 C241.94,158.44 239.76,157.44 239.76,152.17 L239.76,134.83 C239.76,133.03 240.27,132.65 242.27,132.57 L242.27,131.29 C240.41,131.43 238.51,131.57 236.1,131.57 C234.1,131.57 232.25,131.43 230.76,131.29 L230.76,132.57 C232.34,132.57 232.9,133.21 232.9,134.57 L232.9,134.57 L232.9,134.52 L232.9,134.52 Z M270.46,134.67 L270.46,134.67 L270.46,158.67 C270.46,159.97 269.9,160.57 268.32,160.67 L268.32,161.94 L292.82,161.94 C292.87,159.38 292.96,156.94 293.38,153.13 L291.84,153.13 C291.06,157.02 290.27,157.86 287.76,157.86 L277.32,157.86 L277.32,148.07 L283.49,148.07 C285.57,148.07 285.9,148.77 286.19,150.44 L287.45,150.44 C287.32,149.33 287.18,147.28 287.18,146.03 C287.18,144.78 287.31,142.79 287.45,141.62 L286.19,141.62 C285.9,143.29 285.58,143.98 283.49,143.98 L277.32,143.98 L277.32,135.16 L287.25,135.16 C289.76,135.16 290.4,136.04 290.87,138.59 L292.14,138.59 C291.91,136.08 291.82,134.01 291.77,131.46 L268.32,131.46 L268.32,132.73 C269.9,132.73 270.46,133.38 270.46,134.68 L270.46,134.68 L270.46,134.67 L270.46,134.67 Z M300.58,174.42 L300.58,174.42 C297.532358,174.381468 295.088242,171.888371 295.110181,168.840564 C295.132121,165.792758 297.611875,163.335105 300.659756,163.340451 C303.707637,163.345798 306.178753,165.812135 306.19,168.86 C306.192761,170.344139 305.60098,171.767556 304.546846,172.812294 C303.492712,173.857033 302.064055,174.436047 300.58,174.42 L300.58,174.42 L300.58,174.42 L300.58,174.42 Z M296.06,168.86 L296.06,168.86 C296.109451,171.337184 298.147996,173.310607 300.62548,173.279634 C303.102964,173.248662 305.091537,171.224892 305.079044,168.747246 C305.066551,166.2696 303.05767,164.265987 300.58,164.26 C299.364677,164.251514 298.197826,164.736063 297.346013,165.602952 C296.4942,166.469842 296.030196,167.645013 296.06,168.86 L296.06,168.86 L296.06,168.86 L296.06,168.86 Z M299.4,169.3 L299.4,169.3 L299.4,172.07 L298.4,172.07 L298.4,165.68 L300.83,165.68 C302.34,165.68 303.08,166.24 303.08,167.5 C303.107499,167.955582 302.946206,168.402388 302.634047,168.735357 C302.321889,169.068326 301.886407,169.25808 301.43,169.26 L303.24,172.08 L302.16,172.08 L300.48,169.31 L299.36,169.31 L299.4,169.3 L299.4,169.3 Z M299.4,168.47 L300.57,168.47 C301.39,168.47 302.12,168.47 302.12,167.47 C302.12,166.68 301.4,166.53 300.72,166.53 L299.4,166.53 L299.4,168.53 L299.4,168.53 L299.4,168.47 L299.4,168.47 Z M206.35,37.24 L203.35,36.46 C202.855388,36.365338 202.426048,36.061029 202.1729,35.625692 C201.919753,35.190356 201.867631,34.666695 202.03,34.19 L206.1,18.66 C207.49,13.38 211.44,12.38 215.69,13.49 L224.88,15.9 L223.65,20.41 L214.79,18.07 C212.48,17.46 211.42,17.85 210.79,20.43 L210.18,22.76 L221.28,25.67 L220.06,30.07 L208.96,27.16 L206.35,37.24 L206.35,37.24 Z M173,17.87 L174.14,23.47 L185.37,21.18 L186.29,25.69 L175.05,27.97 L175.53,30.32 C176.06,32.93 177.09,33.38 179.43,32.9 L188.43,31.06 L189.36,35.64 L180.05,37.53 C175.73,38.41 171.84,37.18 170.76,31.82 L167.59,16.07 C167.455536,15.583378 167.537782,15.062393 167.815612,14.640858 C168.093442,14.219322 168.539785,13.938311 169.04,13.87 L184.34,10.76 L185.27,15.34 L173,17.87 L173,17.87 Z M152.36,45.42 C153.647969,44.455688 154.494673,43.014489 154.71,41.42 C154.88,39.64 154.39,38.42 152.71,36.32 L144.06,25.67 L147.9,22.56 L157.36,34.19 C159.207552,36.244287 160.107389,38.980083 159.84,41.73 C158.825714,47.839373 153.417736,52.235231 147.23,51.98 C144.484156,51.665924 141.995784,50.214978 140.37,47.98 L130.9,36.33 L134.74,33.21 L143.4,43.86 C145.09,45.94 146.2,46.68 147.98,46.86 C149.573516,46.982507 151.150056,46.464192 152.36,45.42 L152.36,45.42 L152.36,45.42 Z M247.6,28.24 C246.815235,27.530029 245.629381,27.500277 244.81,28.17 L223.05,42.31 L227.65,44.89 L243.34,34.71 L240.86,43.27 L238.86,41.71 L234.65,44.4 L239.45,48.09 L238.06,52.9 L242.14,56.65 L249.34,31.65 C249.781828,30.689991 249.449144,29.551186 248.56,28.98 L247.6,28.24 L247.6,28.24 Z M193.65,45.54 C209.475327,45.52708 224.533587,52.356165 234.95,64.27 L237.86,61.71 C226.6987,48.965165 210.581234,41.655702 193.64,41.655702 C176.698766,41.655702 160.5813,48.965165 149.42,61.71 L152.34,64.27 C162.758708,52.353534 177.821185,45.524191 193.65,45.54 L193.65,45.54 L193.65,45.54 Z M193.65,4.61 C219.468959,4.581197 244.201564,14.997963 262.22,33.49 L264.99,30.78 C246.225759,11.567509 220.505475,0.735554 193.65,0.735554 C166.794525,0.735554 141.074241,11.567509 122.31,30.78 L125.08,33.49 C143.098436,14.997963 167.831041,4.581197 193.65,4.61 L193.65,4.61 L193.65,4.61 Z" id="Shape"></path>
                </g>
            </g>
        </g>
    </g>
</svg>